<svg width="32" height="32" viewBox="0 0 32 32" fill="none" xmlns="http://www.w3.org/2000/svg">
<path d="M8.125 7.79688C7.46875 7.79688 7 7.28125 7 6.67188C7 6.01562 7.46875 5.5 8.125 5.5H23.875C24.4844 5.5 25 6.01562 25 6.67188C25 7.28125 24.4844 7.79688 23.875 7.79688H8.125ZM10.7969 18.2969C10.375 18.7188 9.67188 18.7656 9.20312 18.3438C8.73438 17.9219 8.73438 17.1719 9.15625 16.75L15.1562 10.3281C15.5781 9.90625 16.375 9.90625 16.7969 10.3281L22.7969 16.75C23.2188 17.1719 23.2188 17.9219 22.75 18.3438C22.5156 18.5312 22.2344 18.625 22 18.625C21.6719 18.625 21.3906 18.5312 21.1562 18.2969L17.125 13.9844V25.375C17.125 26.0312 16.6094 26.5 16 26.5C15.3438 26.5 14.875 26.0312 14.875 25.375V13.9844L10.7969 18.2969Z" fill="#031242"/>
</svg>
